<?xml version="1.0" standalone="no"?>
<!DOCTYPE svg PUBLIC "-//W3C//DTD SVG 20010904//EN"
 "http://www.w3.org/TR/2001/REC-SVG-20010904/DTD/svg10.dtd">
<svg version="1.0" xmlns="http://www.w3.org/2000/svg"
 width="1280.000000pt" height="905.000000pt" viewBox="0 0 1280.000000 905.000000"
 preserveAspectRatio="xMidYMid meet">

<g transform="translate(0.000000,905.000000) scale(0.100000,-0.100000)"
fill="#fff" stroke="none">
<path d="M1040 5415 l0 -185 185 0 185 0 0 185 0 185 -185 0 -185 0 0 -185z"/>
<path d="M3635 5553 c-27 -25 -231 -205 -453 -400 l-404 -355 -21 19 c-133
119 -507 443 -512 443 -3 0 -5 -110 -5 -244 l0 -244 243 -213 c133 -117 254
-223 269 -237 l26 -24 264 233 263 232 5 -369 5 -369 188 -3 187 -2 0 790 c0
434 -1 790 -2 790 -2 -1 -25 -21 -53 -47z"/>
<path d="M4687 5593 c-4 -8 -521 -1001 -727 -1396 l-92 -177 213 2 212 3 204
390 c112 215 252 484 311 598 l107 208 43 -3 44 -3 93 -180 c51 -99 147 -283
213 -410 l119 -230 -321 -3 -321 -3 -92 -178 c-51 -99 -93 -182 -93 -185 0 -3
324 -6 721 -6 683 0 721 1 715 18 -4 9 -96 188 -205 397 -109 209 -290 557
-402 772 l-204 393 -267 0 c-147 0 -269 -3 -271 -7z"/>
<path d="M6270 5421 l0 -181 474 0 c444 0 478 -1 537 -20 120 -37 211 -118
266 -236 24 -52 28 -71 28 -159 0 -91 -3 -106 -31 -166 -53 -111 -131 -183
-249 -230 -60 -23 -63 -23 -542 -27 l-483 -4 0 -174 0 -175 518 3 c510 3 518
4 587 27 276 91 477 298 546 558 28 107 29 269 1 375 -59 220 -208 401 -417
502 -165 81 -155 80 -727 84 l-508 3 0 -180z"/>
<path d="M8360 5410 l0 -190 748 0 c411 0 844 3 963 7 l217 6 76 176 c42 97
76 179 76 184 0 4 -468 7 -1040 7 l-1040 0 0 -190z"/>
<path d="M10761 5578 c-5 -13 -61 -144 -125 -292 l-116 -269 0 -499 0 -498
188 2 187 3 5 470 5 470 59 132 59 133 220 2 220 3 49 115 c27 63 62 145 78
183 l29 67 -425 0 -424 0 -9 -22z"/>
<path d="M1040 4530 l0 -510 185 0 185 0 0 510 0 510 -185 0 -185 0 0 -510z"/>
<path d="M8360 4810 l0 -170 820 0 820 0 0 170 0 170 -820 0 -820 0 0 -170z"/>
<path d="M1862 4418 l3 -393 188 -3 187 -2 0 233 0 233 -184 162 c-102 89
-187 162 -190 162 -4 0 -5 -177 -4 -392z"/>
<path d="M8360 4210 l0 -190 820 0 820 0 -2 188 -3 187 -817 3 -818 2 0 -190z"/>
<path d="M3026 3754 c-9 -8 -16 -20 -16 -25 0 -12 23 -12 36 1 6 6 20 6 41 -2
34 -13 63 0 63 28 0 17 -12 18 -28 2 -9 -9 -18 -9 -37 0 -34 16 -40 15 -59 -4z"/>
<path d="M1156 3692 c-8 -13 -116 -306 -116 -314 0 -5 9 -8 19 -8 14 0 24 14
37 50 l18 50 66 0 66 0 18 -50 c15 -41 22 -50 42 -50 24 0 24 0 9 38 -8 20
-37 93 -64 162 -38 98 -53 126 -69 128 -11 2 -23 -1 -26 -6z m47 -102 c8 -25
18 -53 22 -62 6 -16 1 -18 -45 -18 -38 0 -51 3 -47 13 2 6 13 38 23 70 10 31
21 54 25 50 3 -5 13 -28 22 -53z"/>
<path d="M1505 3688 c-31 -18 -44 -40 -45 -74 0 -44 30 -70 110 -94 80 -24
101 -47 76 -84 -30 -46 -130 -36 -149 15 -14 35 -47 40 -47 7 1 -52 54 -88
129 -88 42 0 56 5 83 29 26 23 32 36 31 66 -1 51 -25 71 -114 98 -65 20 -74
26 -77 48 -4 34 19 52 68 52 42 0 70 -16 70 -40 0 -16 24 -28 39 -19 17 11 -9
66 -40 81 -33 18 -106 19 -134 3z"/>
<path d="M1812 3680 c-97 -59 -92 -243 8 -295 41 -21 109 -19 148 5 40 24 72
89 72 145 0 56 -32 121 -72 145 -43 26 -113 26 -156 0z m149 -49 c74 -80 28
-226 -71 -226 -44 0 -76 24 -96 72 -55 129 79 251 167 154z"/>
<path d="M2090 3535 l0 -165 100 0 c93 0 100 1 100 20 0 18 -7 20 -80 20 l-80
0 0 145 c0 138 -1 145 -20 145 -19 0 -20 -7 -20 -165z"/>
<path d="M2340 3574 c0 -172 19 -203 123 -204 51 0 62 4 88 29 l29 29 0 136
c0 129 -1 136 -20 136 -19 0 -20 -7 -20 -124 0 -148 -9 -167 -79 -168 -69 -1
-75 12 -79 162 -3 120 -5 130 -23 130 -18 0 -19 -8 -19 -126z"/>
<path d="M2712 3680 c-85 -52 -94 -200 -17 -277 18 -18 41 -33 50 -33 11 0 15
-5 12 -14 -4 -9 2 -17 14 -21 25 -8 15 -25 -17 -25 -15 0 -24 -6 -24 -15 0
-19 60 -21 78 -3 17 17 15 47 -3 54 -23 9 -18 24 9 24 29 0 72 33 91 70 20 38
19 40 -9 40 -17 0 -26 -7 -30 -25 -6 -25 -51 -55 -81 -55 -30 0 -72 29 -85 59
-17 41 -14 123 4 160 22 42 80 60 124 37 17 -9 34 -25 37 -36 4 -12 14 -20 23
-18 28 5 24 28 -11 63 -30 30 -41 35 -83 35 -31 0 -61 -7 -82 -20z"/>
<path d="M3056 3692 c-8 -13 -116 -306 -116 -314 0 -5 9 -8 20 -8 14 0 24 13
37 50 l18 50 67 0 66 0 17 -50 c14 -42 21 -50 41 -50 24 0 24 0 9 38 -8 20
-37 93 -64 162 -38 98 -53 126 -69 128 -11 2 -23 -1 -26 -6z m47 -102 c8 -25
18 -53 22 -62 6 -16 1 -18 -45 -18 -38 0 -51 3 -47 13 2 6 13 38 23 70 10 31
21 54 25 50 3 -5 13 -28 22 -53z"/>
<path d="M3322 3680 c-40 -24 -72 -89 -72 -145 0 -56 32 -121 72 -145 39 -24
107 -26 148 -5 100 52 105 236 8 295 -43 26 -113 26 -156 0z m149 -49 c74 -80
28 -226 -71 -226 -44 0 -76 24 -96 72 -55 129 79 251 167 154z"/>
<path d="M3730 3536 c0 -159 1 -166 20 -166 18 0 20 7 20 65 l0 65 38 0 c60 1
116 17 135 41 27 34 23 100 -9 130 -22 21 -37 24 -115 27 l-89 4 0 -166z m174
105 c25 -27 17 -72 -14 -88 -14 -7 -46 -13 -72 -13 l-48 0 0 60 0 60 58 0 c45
0 63 -4 76 -19z"/>
<path d="M4045 3628 c-15 -40 -42 -115 -61 -165 l-34 -93 23 0 c19 0 26 9 38
48 l15 47 68 0 68 0 17 -45 c12 -32 23 -46 39 -48 12 -2 22 0 22 4 0 4 -28 79
-62 166 -54 136 -66 158 -84 158 -18 0 -27 -13 -49 -72z m95 -110 c0 -4 -20
-8 -45 -8 -25 0 -45 3 -45 7 0 4 10 38 22 75 l22 69 23 -67 c13 -37 23 -72 23
-76z"/>
<path d="M4280 3536 c0 -159 1 -166 20 -166 18 0 20 7 20 75 l0 75 33 0 c44 0
70 -20 113 -90 28 -46 42 -60 60 -60 13 0 24 2 24 5 0 11 -53 91 -78 117 l-25
27 25 10 c58 22 75 90 34 138 -23 27 -29 28 -125 31 l-101 4 0 -166z m195 100
c32 -49 -13 -86 -106 -86 l-49 0 0 55 0 55 70 0 c63 0 71 -2 85 -24z"/>
<path d="M4660 3643 c-12 -32 -37 -98 -55 -148 -18 -49 -37 -98 -41 -108 -6
-16 -3 -18 17 -15 18 2 28 14 40 48 l17 45 68 0 68 0 15 -47 c12 -40 19 -48
39 -48 19 0 23 4 18 18 -4 9 -32 83 -64 165 -49 127 -60 147 -79 147 -17 0
-26 -12 -43 -57z m87 -129 c-3 -3 -25 -4 -50 -2 l-45 3 26 69 25 69 25 -67
c13 -37 22 -69 19 -72z"/>
<path d="M5043 3680 c-65 -39 -90 -143 -55 -223 26 -58 70 -87 133 -87 88 0
149 68 149 165 0 97 -61 165 -149 165 -28 0 -59 -8 -78 -20z m122 -25 c43 -21
60 -56 60 -124 -1 -70 -23 -107 -75 -122 -75 -23 -133 33 -132 127 0 62 20 99
63 121 31 17 44 16 84 -2z"/>
<path d="M5354 3676 c-21 -17 -28 -33 -28 -59 0 -49 23 -71 97 -92 95 -28 120
-61 77 -100 -41 -37 -129 -15 -145 36 -4 11 -16 19 -27 19 -17 0 -19 -4 -14
-27 4 -16 21 -41 38 -57 29 -26 35 -28 96 -24 56 4 68 8 88 32 30 35 31 82 2
113 -12 13 -52 32 -89 43 -37 11 -72 27 -79 35 -33 40 42 89 97 63 15 -7 32
-23 38 -36 5 -12 17 -21 25 -20 26 5 22 37 -8 68 -27 26 -38 30 -86 30 -43 0
-61 -5 -82 -24z"/>
<path d="M5740 3535 c0 -158 1 -165 20 -165 18 0 20 7 20 64 l0 63 73 7 c63 5
75 10 100 36 45 50 31 121 -28 145 -20 9 -66 15 -110 15 l-75 0 0 -165z m172
113 c30 -24 31 -56 4 -83 -21 -21 -35 -25 -81 -25 l-55 0 0 60 0 60 58 0 c32
0 65 -6 74 -12z"/>
<path d="M6030 3535 c0 -158 1 -165 20 -165 18 0 20 7 20 75 l0 75 29 0 c52 0
75 -17 116 -84 34 -55 44 -65 68 -66 l28 0 -36 58 c-20 31 -46 65 -57 75 -11
9 -16 17 -10 17 6 0 24 12 41 26 24 20 31 34 31 62 -1 71 -39 92 -166 92 l-84
0 0 -165z m194 109 c19 -19 20 -44 3 -68 -10 -14 -32 -20 -85 -24 l-72 -5 0
57 0 56 69 0 c50 0 74 -4 85 -16z"/>
<path d="M6400 3674 c-44 -37 -60 -75 -60 -139 0 -101 55 -165 142 -165 95 0
151 62 150 166 -1 104 -55 164 -150 164 -40 0 -57 -5 -82 -26z m125 -18 c19
-8 41 -28 49 -45 20 -38 20 -113 1 -151 -16 -30 -61 -60 -90 -60 -29 0 -74 30
-90 60 -19 38 -19 113 1 151 8 17 30 37 47 44 40 18 41 18 82 1z"/>
<path d="M6690 3535 l0 -167 89 4 c78 3 93 6 115 27 36 34 37 101 2 128 -23
19 -23 19 -5 42 26 31 24 64 -5 98 -23 26 -31 28 -110 32 l-86 3 0 -167z m162
108 c44 -39 8 -83 -69 -83 l-53 0 0 50 0 50 52 0 c34 0 58 -6 70 -17z m12
-139 c21 -20 20 -53 -1 -76 -12 -13 -31 -18 -75 -18 l-58 0 0 55 0 55 59 0
c41 0 65 -5 75 -16z"/>
<path d="M6980 3535 l0 -165 100 0 c93 0 100 1 100 20 0 18 -7 20 -80 20 l-80
0 0 145 c0 138 -1 145 -20 145 -19 0 -20 -7 -20 -165z"/>
<path d="M7230 3535 l0 -165 115 0 c108 0 115 1 115 20 0 19 -7 20 -95 20
l-95 0 0 55 0 55 85 0 c78 0 85 2 85 20 0 18 -7 20 -85 20 l-85 0 0 50 0 50
90 0 c83 0 90 1 90 20 0 19 -7 20 -110 20 l-110 0 0 -165z"/>
<path d="M7520 3535 c0 -158 1 -165 20 -165 19 0 20 7 21 128 l1 127 42 -125
c59 -173 67 -173 126 2 l45 133 3 -132 c2 -125 4 -133 22 -133 19 0 20 7 20
165 l0 165 -29 0 c-29 0 -30 -3 -71 -127 -24 -71 -46 -131 -49 -136 -4 -4 -27
53 -50 128 -42 133 -43 135 -72 135 l-29 0 0 -165z"/>
<path d="M7965 3688 c-2 -7 -29 -80 -60 -162 -30 -82 -55 -151 -55 -153 0 -3
10 -3 22 -1 17 2 26 15 37 51 l15 47 67 0 67 0 18 -50 c15 -41 22 -50 42 -50
28 0 31 -13 -46 180 -48 120 -62 146 -80 148 -12 2 -24 -3 -27 -10z m69 -155
c7 -22 5 -23 -43 -23 l-50 0 20 58 c10 31 22 64 25 72 6 14 20 -19 48 -107z"/>
<path d="M8204 3676 c-21 -17 -28 -33 -28 -59 0 -49 23 -71 97 -92 95 -28 120
-61 77 -100 -41 -37 -129 -15 -145 36 -4 11 -16 19 -27 19 -17 0 -19 -4 -14
-27 4 -16 21 -41 38 -57 29 -26 35 -28 96 -24 56 4 68 8 88 32 30 35 31 82 2
113 -12 13 -52 32 -90 44 -68 20 -94 43 -82 73 18 48 144 30 144 -21 0 -20 34
-12 38 10 2 9 -10 31 -26 47 -27 26 -38 30 -86 30 -43 0 -61 -5 -82 -24z"/>
<path d="M8590 3536 l0 -166 69 0 c115 0 162 29 181 111 18 72 6 133 -34 177
-33 35 -35 36 -125 40 l-91 4 0 -166z m164 113 c31 -15 49 -58 48 -116 -1 -92
-32 -123 -122 -123 l-50 0 0 125 0 125 50 0 c27 0 60 -5 74 -11z"/>
<path d="M8962 3618 c-17 -46 -44 -120 -61 -165 l-30 -83 22 0 c19 0 26 9 38
48 l15 47 68 0 68 0 18 -45 c12 -31 24 -46 39 -48 11 -2 21 0 21 4 0 4 -28 79
-62 166 -54 139 -64 158 -84 158 -19 0 -27 -13 -52 -82z m98 -100 c0 -4 -22
-8 -48 -8 l-49 0 26 75 26 75 22 -67 c13 -37 23 -71 23 -75z"/>
<path d="M9325 3677 c-32 -27 -38 -86 -12 -115 10 -10 45 -27 80 -37 77 -23
102 -44 93 -79 -13 -54 -117 -53 -151 2 -11 17 -28 31 -39 32 -27 0 -13 -48
25 -82 25 -24 38 -28 90 -28 54 0 64 3 90 29 35 36 39 86 9 119 -11 11 -51 31
-90 42 -97 29 -118 76 -44 100 41 14 84 -3 99 -38 5 -12 17 -21 25 -20 26 5
22 37 -8 68 -27 26 -38 30 -86 30 -43 0 -61 -5 -81 -23z"/>
<path d="M9590 3581 c0 -178 20 -211 124 -211 102 0 124 43 125 238 1 92 1 92
-24 92 l-25 0 0 -124 c0 -103 -3 -127 -18 -145 -30 -38 -116 -28 -133 16 -5
13 -9 76 -9 139 0 107 -1 114 -20 114 -19 0 -20 -7 -20 -119z"/>
<path d="M9985 3683 c-11 -30 -76 -204 -95 -260 l-19 -53 23 0 c18 0 25 9 37
48 l15 47 69 0 69 0 15 -47 c12 -40 19 -48 39 -48 19 0 23 4 18 18 -4 9 -32
83 -64 164 -49 127 -60 148 -78 148 -12 0 -25 -8 -29 -17z m75 -165 c0 -5 -22
-8 -48 -8 l-49 0 26 73 25 74 23 -66 c13 -36 23 -69 23 -73z"/>
<path d="M10353 3680 c-46 -28 -67 -74 -67 -145 0 -112 54 -169 156 -162 65 4
100 28 124 84 19 45 17 121 -4 163 -37 74 -138 104 -209 60z m121 -25 c40 -19
56 -45 63 -104 15 -125 -107 -198 -182 -109 -34 40 -36 141 -4 182 36 46 73
55 123 31z"/>
<path d="M10630 3534 l0 -166 96 4 c91 4 98 6 120 32 40 45 30 107 -21 134
-11 6 -14 12 -7 12 22 0 41 60 30 92 -15 42 -55 58 -143 58 l-75 0 0 -166z
m161 116 c12 -7 19 -21 19 -40 0 -36 -23 -50 -84 -50 l-46 0 0 50 0 50 46 0
c25 0 54 -5 65 -10z m23 -152 c21 -30 20 -44 -4 -68 -15 -15 -33 -20 -75 -20
l-55 0 0 55 0 55 59 0 c51 0 62 -3 75 -22z"/>
<path d="M10930 3536 c0 -159 1 -166 20 -166 18 0 20 7 20 75 l0 75 33 0 c44
0 70 -20 113 -90 28 -46 42 -60 60 -60 13 0 24 2 24 5 0 11 -53 91 -78 117
l-25 27 25 10 c58 22 75 90 34 138 -23 27 -29 28 -125 31 l-101 4 0 -166z
m195 100 c32 -49 -13 -86 -106 -86 l-49 0 0 55 0 55 70 0 c63 0 71 -2 85 -24z"/>
<path d="M11325 3683 c-11 -30 -76 -204 -95 -260 l-19 -53 23 0 c18 0 25 9 37
48 l15 47 68 0 68 0 17 -45 c12 -34 22 -46 40 -48 19 -3 23 0 17 15 -3 10 -32
84 -64 166 -49 126 -60 147 -78 147 -12 0 -25 -8 -29 -17z m72 -169 c-3 -3
-25 -4 -49 -2 l-45 3 25 68 25 69 25 -66 c14 -37 22 -69 19 -72z"/>
</g>
</svg>
