<?xml version="1.0" encoding="UTF-8" standalone="no"?>
<!DOCTYPE svg PUBLIC "-//W3C//DTD SVG 1.1//EN" "http://www.w3.org/Graphics/SVG/1.1/DTD/svg11.dtd">
<svg width="100%" height="100%" viewBox="0 0 1684 1191" version="1.1" xmlns="http://www.w3.org/2000/svg" xmlns:xlink="http://www.w3.org/1999/xlink" xml:space="preserve" xmlns:serif="http://www.serif.com/" style="fill-rule:evenodd;clip-rule:evenodd;stroke-linejoin:round;stroke-miterlimit:2;">
    <g transform="matrix(0.48,0,0,0.48,0,0)">
        <g transform="matrix(0.637156,0,0,0.983437,183.58,6.91904)">
            <rect x="505.947" y="417.737" width="370.742" height="120.099" style="fill:rgb(255,168,24);"/>
        </g>
        <g transform="matrix(0.318578,0,0,12.7847,462.438,-4922.9)">
            <rect x="505.947" y="417.737" width="370.742" height="120.099" style="fill:rgb(255,168,24);"/>
        </g>
        <g transform="matrix(6.37156,0,0,0.983437,-2600.05,1424.61)">
            <rect x="505.947" y="417.737" width="370.742" height="120.099" style="fill:rgb(255,168,24);"/>
        </g>
        <g transform="matrix(3.18578,0,0,4.91718,34.6926,-726.532)">
            <path d="M876.689,417.737L505.947,417.737L505.947,537.837L876.689,537.837L876.689,417.737ZM532.105,434.685L532.105,520.889L850.531,520.889L850.531,434.685L532.105,434.685Z" style="fill:rgb(255,168,24);"/>
        </g>
        <g transform="matrix(1.59289,0,0,4.91718,1431.16,-1234.41)">
            <path d="M876.689,417.737L505.947,417.737L505.947,537.837L876.689,537.837L876.689,417.737ZM558.263,434.685L558.263,520.889L824.373,520.889L824.373,434.685L558.263,434.685Z" style="fill:rgb(255,168,24);"/>
        </g>
        <g transform="matrix(0.807823,0,0,0.916988,1735.14,114.599)">
            <ellipse cx="1148.22" cy="2122.63" rx="109.656" ry="96.602" style="fill:rgb(255,168,24);"/>
        </g>
        <g transform="matrix(0.807823,0,0,0.916988,-12.2027,114.599)">
            <ellipse cx="1148.22" cy="2122.63" rx="109.656" ry="96.602" style="fill:rgb(255,168,24);"/>
        </g>
        <g transform="matrix(1.02501,-0.881309,0.651956,0.758257,-692.892,1611.71)">
            <path d="M2270.89,809.366L887.132,809.366L887.132,1310.65L2270.89,1310.65L2270.89,809.366ZM948.779,892.699L948.779,1227.32L2209.24,1227.32L2209.24,892.699L948.779,892.699Z" style="fill:rgb(255,168,24);"/>
        </g>
    </g>
</svg>
